PathFileType	4	(X/Y/Z)	 s03c0301.trc
DataRate	CameraRate	NumFrames	NumMarkers	Units	OrigDataRate	OrigDataStartFrame	OrigNumFrames
200	200	6	52	mm	200	1	2000
Frame#	Time	racr			lacr			c7			jug			rlel			rdr			llel			ldr			s2			lic			ric			lasi			rasi			rpsi			lpsi			rgt			lgt			rth1			rth2			rth3			rth4			rlfc			rmfc			rsh1			rsh2			rsh3			rsh4			rlmal			rmmal			rcal			rtoe			rmt5			rmt1			lth1			lth2			lth4			lth3			llfc			lmfc			lsh1			lsh2			lsh3			lsh4			llmal			lmmal			lcal			ltoe			lmt1			lmt5			SBIKE			LBIKE			RBIKE			
		X1	Y1	Z1	X2	Y2	Z2	X3	Y3	Z3	X4	Y4	Z4	X5	Y5	Z5	X6	Y6	Z6	X7	Y7	Z7	X8	Y8	Z8	X9	Y9	Z9	X10	Y10	Z10	X11	Y11	Z11	X12	Y12	Z12	X13	Y13	Z13	X14	Y14	Z14	X15	Y15	Z15	X16	Y16	Z16	X17	Y17	Z17	X18	Y18	Z18	X19	Y19	Z19	X20	Y20	Z20	X21	Y21	Z21	X22	Y22	Z22	X23	Y23	Z23	X24	Y24	Z24	X25	Y25	Z25	X26	Y26	Z26	X27	Y27	Z27	X28	Y28	Z28	X29	Y29	Z29	X30	Y30	Z30	X31	Y31	Z31	X32	Y32	Z32	X33	Y33	Z33	X34	Y34	Z34	X35	Y35	Z35	X36	Y36	Z36	X37	Y37	Z37	X38	Y38	Z38	X39	Y39	Z39	X40	Y40	Z40	X41	Y41	Z41	X42	Y42	Z42	X43	Y43	Z43	X44	Y44	Z44	X45	Y45	Z45	X46	Y46	Z46	X47	Y47	Z47	X48	Y48	Z48	X49	Y49	Z49	X50	Y50	Z50	X51	Y51	Z51	X52	Y52	Z52	
1	0.0050	484.227981	1401.165867	-72.569189	479.285593	1413.331317	-388.211366	415.866166	1484.216765	-228.893192	445.601445	1316.977915	-223.910645	534.134283	1139.562577	13.504751	747.136282	943.811130	-35.909642	557.777593	1155.915754	-447.207488	756.156445	928.276738	-408.162626	-105.118771	1204.180731	-234.325550	79.743108	1206.474309	-411.597100	72.164944	1223.812895	-50.578568	88.766768	1131.840727	-383.075534	81.797679	1159.117151	-89.513329	-74.576056	1254.895478	-190.208582	-66.823212	1250.695628	-272.395620	0.062126	1141.003422	-28.115826	7.690337	1101.341945	-432.493277	121.009678	1048.519234	-3.787969	209.885176	1044.260438	0.043783	283.550576	998.798544	-0.258550	222.115205	1076.347239	-13.869420	402.294395	928.631761	-20.771499	414.136828	919.635849	-147.169870	348.170620	769.786410	-9.473273	339.988025	682.976201	-28.264692	285.905620	612.636077	-36.847845	366.258145	675.511076	-54.490709	235.400679	490.856918	-64.953059	258.907665	509.633795	-152.083233	175.876397	435.417550	-108.163458	482.202077	476.576935	-107.837055	367.825315	440.323814	-37.947147	389.899765	461.427693	-152.355291	81.687603	963.370012	-458.920036	147.900160	908.131324	-470.594536	177.709136	930.032496	-469.738043	181.017836	825.652699	-466.440653	268.705844	727.662064	-461.266397	284.134956	718.262523	-335.519940	170.304243	585.482562	-470.232175	149.219974	506.599352	-445.535698	85.770625	442.539786	-430.806762	177.316340	493.560439	-422.103163	14.384326	341.936478	-401.350694	54.768429	350.449421	-312.833307	-59.640592	316.127652	-349.114307	235.119293	222.426267	-352.718846	142.845234	242.323660	-307.608328	112.196836	233.723393	-423.505090	-212.909528	946.136986	-227.952162	-4.203430	83.340975	-432.251334	-8.943976	80.771663	-32.461869	
2	0.0100	484.270644	1401.123607	-72.583965	479.277016	1413.329944	-388.260811	415.862128	1484.225633	-228.891609	445.587474	1317.022846	-223.871185	534.159723	1139.566217	13.483490	747.111075	943.812482	-35.927870	557.791094	1155.921666	-447.221446	756.151262	928.274825	-408.150238	-105.094261	1204.165401	-234.329157	79.730511	1206.453983	-411.563514	72.165378	1223.790001	-50.578392	88.765786	1131.851495	-383.072433	81.779585	1159.197232	-89.494760	-74.571957	1254.903530	-190.237251	-66.827384	1250.705498	-272.405530	0.057521	1140.996911	-28.125705	7.667014	1101.359052	-432.489620	121.021544	1048.523622	-3.809341	209.903939	1044.269597	0.029520	283.554745	998.839832	-0.268202	222.138213	1076.355295	-13.866800	402.320781	928.632345	-20.759722	414.129008	919.656870	-147.189478	348.178091	769.829774	-9.482177	339.966448	683.036145	-28.294567	285.898225	612.669265	-36.868365	366.275843	675.550158	-54.493423	235.419682	490.897967	-64.958960	258.895399	509.661611	-152.094872	175.848989	435.586031	-107.764197	482.188933	476.594413	-107.826825	367.820283	440.350410	-37.952409	389.882367	461.480465	-152.386386	81.668716	963.363958	-458.948702	147.880959	908.128581	-470.616381	177.706931	930.036247	-469.742476	180.991149	825.652769	-466.450010	268.698203	727.658086	-461.264115	284.136989	718.251783	-335.500018	170.284401	585.447853	-470.221479	149.216429	506.589594	-445.545603	85.794280	442.471172	-430.769449	177.313284	493.567639	-422.116113	14.399947	341.904178	-401.366080	54.774032	350.448460	-312.825063	-59.624111	316.098320	-349.119439	235.134609	222.419571	-352.717976	142.865730	242.298686	-307.588919	112.211623	233.705903	-423.500489	-212.921017	946.141270	-227.949723	-4.230750	83.288386	-432.301753	-8.941650	80.746727	-32.462896	
3	0.0150	484.279534	1401.137251	-72.585256	479.289792	1413.340984	-388.245288	415.850246	1484.226638	-228.879377	445.587474	1317.022846	-223.871185	534.159960	1139.569317	13.482823	747.118747	943.812562	-35.945228	557.806804	1155.919265	-447.233674	756.152028	928.268754	-408.152275	-105.095156	1204.154838	-234.326282	79.730511	1206.453983	-411.563514	72.174064	1223.794151	-50.580357	88.765786	1131.851495	-383.072433	81.779590	1159.197258	-89.494767	-74.581708	1254.889851	-190.225309	-66.835977	1250.702996	-272.401015	0.052494	1140.993392	-28.125954	7.664949	1101.359713	-432.486258	121.016166	1048.544496	-3.794246	209.905792	1044.307600	0.029627	283.553260	998.871365	-0.248569	222.133167	1076.377139	-13.854337	402.318034	928.659691	-20.755821	414.140169	919.682675	-147.180765	348.174513	769.845271	-9.475802	339.981249	683.061206	-28.288896	285.894656	612.710957	-36.863077	366.269858	675.572610	-54.494573	235.403864	490.934685	-64.962190	258.879361	509.695050	-152.096665	175.834739	435.627354	-107.753199	482.176880	476.618510	-107.842474	367.799051	440.388844	-37.948834	389.856948	461.496978	-152.384389	81.665719	963.356924	-458.956223	147.872550	908.121295	-470.612904	177.686891	930.019513	-469.741759	180.981712	825.639387	-466.445505	268.684422	727.647373	-461.260245	284.124156	718.263501	-335.498605	170.287032	585.438850	-470.220769	149.217745	506.552616	-445.539139	85.795267	442.447215	-430.764512	177.315527	493.540395	-422.107883	14.408253	341.877829	-401.350123	54.793053	350.384410	-312.831124	-59.610765	316.064537	-349.108597	235.161070	222.392881	-352.716058	142.893548	242.287599	-307.609458	112.224804	233.680700	-423.518804	-212.922891	946.144546	-227.939808	-4.225688	83.256578	-432.307096	-8.939874	80.767314	-32.476890	
4	0.0200	484.294380	1401.119770	-72.591974	479.300049	1413.330638	-388.251208	415.834548	1484.240791	-228.867519	443.156193	1316.952271	-225.320055	534.034445	1139.618847	14.060464	747.117259	943.803140	-35.956278	557.799699	1155.921286	-447.221857	756.367741	928.363614	-408.326001	-105.106191	1204.163155	-234.310482	79.111478	1206.811773	-412.500212	72.505554	1223.743917	-50.536730	86.949790	1130.159893	-379.539835	81.750465	1159.236279	-89.462458	-74.592232	1254.888218	-190.222553	-66.838752	1250.690774	-272.400620	0.046662	1141.002545	-28.123901	7.547512	1101.274212	-432.614668	120.929648	1048.505348	-3.791196	209.905490	1044.329727	0.024540	283.632950	998.832519	-0.190640	221.316929	1076.822799	-14.598857	402.338934	928.677582	-20.740256	414.151116	919.711469	-147.185007	348.171020	769.866860	-9.437723	339.978027	683.102463	-28.295272	285.883167	612.747692	-36.861159	367.804893	676.754639	-54.217810	235.083224	491.104151	-64.812856	260.053185	508.966015	-150.940711	175.805777	435.664180	-107.752976	482.162258	476.640896	-107.839294	367.532215	440.488253	-37.815388	389.890509	461.487124	-152.441187	81.660251	963.357883	-459.024443	147.877312	908.112169	-470.608883	178.360485	929.332802	-468.654390	180.974490	825.636604	-466.430655	269.316598	726.682946	-459.432429	284.074055	718.233285	-335.495930	170.896161	584.460427	-468.538280	149.217765	506.552533	-445.539118	85.942539	442.281381	-430.760952	177.970614	493.666492	-419.488903	14.375737	341.879411	-401.266281	54.817958	350.392269	-312.837740	-59.593590	316.018544	-349.111864	235.180672	222.371946	-352.708592	142.912697	242.247048	-307.591522	112.865329	232.057387	-421.323570	-212.976764	946.170682	-228.341967	-4.232416	83.295854	-432.297712	-8.935100	80.764256	-32.462361	
5	0.0250	484.381373	1401.114890	-72.872417	479.351992	1413.409251	-388.283763	415.758403	1484.186869	-228.035009	443.034247	1317.604695	-227.043475	533.275328	1140.017959	12.776794	747.258153	943.978005	-36.113675	557.509554	1156.807833	-448.883266	756.484563	928.424225	-408.323255	-105.199943	1204.368115	-233.974288	80.318296	1207.650132	-414.370260	72.664059	1223.730371	-50.878231	87.888779	1131.212253	-381.135442	81.747618	1159.193702	-89.457802	-74.546025	1255.002130	-190.338778	-66.889605	1250.867805	-272.189146	0.126484	1141.060672	-28.106169	7.492574	1101.070748	-432.487416	121.114011	1048.552532	-3.783096	210.009846	1044.445513	-0.004361	283.648319	998.825797	-0.423968	221.424343	1076.842667	-14.663774	401.596840	929.168877	-22.053558	414.188960	919.719853	-147.200563	348.235993	769.965233	-9.376352	339.133732	683.477626	-29.390986	285.991262	612.770436	-36.963351	367.241736	677.160366	-55.174596	235.259339	491.100613	-65.005170	258.194286	510.017125	-151.786100	175.862037	435.618999	-107.984029	482.153624	476.714593	-107.978469	367.632919	440.565687	-37.851029	389.847191	461.480878	-152.499590	81.659324	963.247839	-459.093305	147.370381	908.684756	-471.590505	177.660101	930.126101	-470.549274	181.006935	825.666192	-466.429822	268.645909	727.525454	-461.260137	283.603181	718.648095	-336.186165	170.260260	585.358001	-470.205593	149.209293	506.510169	-445.518517	85.258540	443.225963	-431.849338	177.805170	494.221471	-420.491029	14.447476	341.914130	-401.424074	54.578220	350.336730	-313.604159	-59.462202	316.021720	-349.176915	234.444339	223.498914	-354.432546	142.668917	243.156015	-308.311727	112.255915	233.582320	-423.477881	-212.939793	946.137476	-228.468800	-4.413443	84.021771	-432.869955	-8.689156	80.554280	-32.428770	
6	0.0300	484.294483	1401.069318	-72.746779	479.331142	1413.388387	-388.311427	415.758056	1484.219589	-228.128530	442.925077	1317.644469	-227.218159	533.478518	1139.957694	13.131497	747.095480	943.776171	-36.007085	557.258732	1156.544115	-448.474779	757.381012	929.668005	-410.168293	-105.172320	1204.379262	-233.942740	80.474572	1207.797313	-414.738118	72.496975	1223.798777	-50.742135	88.001286	1131.305089	-381.407172	81.744506	1159.206575	-89.454579	-74.540027	1255.017854	-190.369423	-66.895925	1250.880850	-272.144988	0.106721	1141.089635	-28.052674	7.554185	1101.375101	-432.560237	121.081484	1048.598148	-3.744042	209.984644	1044.437905	0.034548	283.647680	998.856491	-0.458068	221.390323	1076.878200	-14.606691	401.522025	929.148638	-21.908627	414.187524	919.739921	-147.208806	348.261036	769.996173	-9.387273	339.006263	683.490275	-29.257982	285.903423	612.823624	-36.852029	367.162786	677.084491	-55.134067	235.088269	491.160907	-64.768689	258.216839	510.014297	-151.786570	175.839177	435.664572	-108.011552	482.134032	476.667857	-107.903424	367.572908	440.588121	-37.748046	389.825290	461.535280	-152.558895	81.647035	963.383872	-459.023707	147.498165	908.821494	-471.747857	177.787054	929.749269	-469.388078	180.997236	825.654503	-466.391842	268.648838	727.622138	-461.213476	283.568977	718.616692	-336.219604	170.261890	585.377369	-470.190209	149.212041	506.487797	-445.514206	85.267652	443.148713	-431.774868	177.794279	494.231807	-420.588362	14.480524	341.898015	-401.437428	54.524059	350.317216	-313.618708	-59.520603	315.972209	-349.076755	234.323057	223.236534	-353.992901	142.634829	243.679198	-308.916085	112.298282	233.613256	-423.510801	-212.993337	946.169404	-228.308539	-4.481466	83.866180	-432.903107	-8.930458	80.709915	-32.573509	
